<svg width="600" height="204" viewBox="0 0 600 204" fill="none" xmlns="http://www.w3.org/2000/svg">
<path d="M75.4244 24.2197C69.9996 65.0828 116.713 85.7168 208.234 89.0317C161.238 73.5298 116.561 51.7272 75.4244 24.2197Z" fill="#34A853"/>
<path d="M106.365 84.3574C113.865 112.416 149.954 113.901 210.576 92.5821C175.628 94.5147 140.578 91.7485 106.365 84.3574Z" fill="#FBBC05"/>
<path d="M213.563 97.1338C209.563 100.159 205.718 102.998 201.973 105.633H201.943C165.355 131.057 140.066 135.932 127.746 117.263C154.64 114.596 181.119 108.729 206.623 99.7886C208.968 98.9337 211.293 98.0487 213.558 97.1338" fill="#EA4335"/>
<path d="M234.846 13.9727C230.734 25.52 224.657 36.2695 216.882 45.7462C215.687 47.1412 212.502 50.856 211.332 52.1909C206.947 56.8857 201.918 61.6905 197.118 65.9053L188.368 72.9849C193.673 67.7795 198.708 62.306 203.453 56.5857C204.608 55.0858 207.402 51.461 208.512 50.011C215.451 40.5272 220.85 30.0085 224.512 18.8425C225.102 16.8426 225.642 14.8077 226.072 12.7628C229.043 12.6122 232.017 13.0227 234.836 13.9727" fill="#EA4335"/>
<path d="M237.971 6.80396C237.865 7.54393 237.738 8.28056 237.592 9.01386C234.41 7.615 230.915 7.08533 227.462 7.47893V7.44893C227.462 7.12395 237.057 -8.7153 237.962 6.80396" fill="#EA4335"/>
<path d="M193.598 19.6685C207.298 5.94918 229.712 5.74919 246.727 12.9988C258.675 18.2952 268.946 26.7585 276.43 37.4727C276.595 37.6727 277.24 38.6076 277.385 38.7876C277.852 39.4375 278.057 40.2395 277.959 41.0337C277.861 41.828 277.467 42.5559 276.855 43.0724C276.475 43.3849 276.028 43.6061 275.548 43.7187C275.069 43.8314 274.57 43.8327 274.09 43.7224L273.52 43.6324C260.336 42.0825 244.162 42.2025 232.427 48.4772C215.298 58.1217 226.237 79.0307 235.042 92.6801C238.057 97.2913 240.656 102.162 242.807 107.234C243.949 109.968 244.95 112.758 245.807 115.594C256.806 152.347 230.687 167.536 197.618 167.866C190.828 167.968 184.041 167.496 177.329 166.457L177.429 165.542C193.739 165.742 210.893 164.437 225.597 157.042C248.721 145.103 241.632 121.124 231.812 102.265L231.537 101.72C231.492 101.61 231.372 101.415 231.327 101.31L231.387 101.415C231.497 101.59 231.552 101.66 231.497 101.59C224.967 92.7339 220.075 82.7807 217.053 72.201C211.473 48.7022 228.877 38.4476 249.796 37.1177C258.022 36.5564 266.285 36.9929 274.405 38.4176L275.075 38.5526C274.696 38.5113 274.312 38.5762 273.968 38.7402C273.623 38.9041 273.33 39.1607 273.123 39.4811C272.916 39.8016 272.801 40.1734 272.793 40.5551C272.785 40.9367 272.882 41.3132 273.075 41.6425L273.11 41.6925C272.56 40.8375 271.426 39.1926 270.861 38.3276C258.006 19.5485 234.762 6.82914 211.773 11.6639C205.251 12.8766 199.188 15.8603 194.248 20.2885L193.598 19.6685Z" fill="#4285F4"/>
<path d="M280.323 111.569L263.438 129.068V111.569H254.438V154.102H263.438V139.872L267.848 135.532L281.303 154.097H293.047L274.188 129.058L292.117 111.559L280.323 111.569Z" fill="#4285F4"/>
<path d="M326.293 111.568H336.638L322.029 138.157V154.101H312.889V138.157L297.774 111.568H308.529L317.594 130.092L326.293 111.568Z" fill="#4285F4"/>
<path d="M387.132 149.193C386.861 147.45 386.754 145.686 386.812 143.923V140.103C387 137.056 386.421 134.01 385.127 131.244C383.798 129.13 381.779 127.54 379.413 126.744C382.355 125.896 384.842 123.919 386.332 121.244C387.682 118.811 388.403 116.078 388.427 113.295C388.463 111.255 388.098 109.229 387.352 107.33C386.637 105.592 385.644 103.981 384.412 102.56C382.941 100.819 381.072 99.4591 378.963 98.5954C376.013 97.5624 372.902 97.0696 369.778 97.1405H341.914V153.848H353.808V131.609H365.708C368.162 131.334 370.63 131.977 372.638 133.414C374.149 135.506 374.836 138.082 374.568 140.648L374.648 145.923C374.665 147.563 374.833 149.198 375.148 150.808C375.308 151.578 375.578 152.588 375.943 153.848H389.377V152.423C388.792 152.075 388.289 151.606 387.902 151.047C387.515 150.488 387.252 149.852 387.132 149.183M372.763 121.284C370.899 122 368.906 122.315 366.913 122.209H353.808V106.97H367.253C369.179 106.859 371.104 107.201 372.873 107.97C374.035 108.681 374.968 109.711 375.561 110.939C376.153 112.166 376.379 113.537 376.213 114.89C376.359 116.18 376.107 117.483 375.49 118.626C374.874 119.768 373.922 120.699 372.763 121.284Z" fill="#4285F4"/>
<path d="M420.437 111.568H410.107L394.508 154.101H404.063L407.022 145.367H423.102L425.992 154.101H435.901L420.437 111.568ZM409.507 138.032L415.172 121.293L420.672 138.032H409.507Z" fill="#4285F4"/>
<path d="M468.087 111.568H457.757L442.168 154.101H451.713L454.672 145.367H470.757L473.642 154.101H483.551L468.087 111.568ZM457.152 138.032L462.827 121.293L468.327 138.032H457.152Z" fill="#4285F4"/>
<path d="M489.371 111.568H498.946L516.29 141.232V111.568H524.79V154.101H515.665L497.881 123.923V154.101H489.381L489.371 111.568Z" fill="#4285F4"/>
<path d="M516.761 178.16C516.761 176.705 516.761 175.52 519.261 175.52L520.976 175.825C523.75 176.265 523.79 176.22 524.275 172.825L519.131 171.77C512.841 171.77 512.796 174.85 512.796 178.37C512.796 182.945 520.756 186.289 520.756 188.369C520.756 190.739 520.8 192.284 518.755 192.284C516.756 192.284 514.836 191.979 512.856 191.844V195.279C514.789 195.659 516.745 195.909 518.711 196.029C525 196.029 525 191.799 525 188.029C525 183.495 516.776 180.595 516.776 178.175M500.536 185.52L500.181 184.52L509.771 184.3L509.646 181.3C509.601 175.845 509.146 171.8 503.441 171.8C496.136 171.8 496.621 175.3 496.621 184.955C496.621 192.789 496.756 196.044 503.441 196.044C505.486 195.992 507.52 195.741 509.516 195.294V191.864C507.505 192.163 505.474 192.31 503.441 192.304C500.541 192.304 500.541 190.849 500.541 185.529M500.756 179.76C500.756 176.33 501.021 175.54 503.441 175.54C505.441 175.54 505.686 176.77 505.736 179.76L506.176 180.73H500.406L500.756 179.76ZM487.602 172.115V193.274C487.602 195.914 487.602 195.914 491.517 195.914V174.75C491.517 172.11 491.517 172.11 487.602 172.11M489.557 164.58C489.215 164.577 488.875 164.64 488.557 164.767C488.24 164.894 487.951 165.083 487.706 165.322C487.461 165.561 487.266 165.846 487.132 166.161C486.997 166.475 486.926 166.813 486.922 167.155C486.912 167.856 487.18 168.531 487.668 169.033C488.156 169.535 488.824 169.823 489.524 169.833C490.224 169.843 490.9 169.574 491.402 169.086C491.904 168.598 492.192 167.93 492.202 167.23V167.16C492.2 166.818 492.131 166.48 491.999 166.164C491.867 165.849 491.674 165.562 491.431 165.321C491.189 165.08 490.901 164.89 490.584 164.76C490.268 164.63 489.929 164.564 489.587 164.566M475.882 192.284C471.702 192.284 471.487 192.064 471.487 191.284C471.487 190.009 471.707 189.784 474.567 189.784C481.342 189.784 481.342 186.839 481.342 180.59C481.463 178.821 481.191 177.047 480.547 175.395C482.087 175.26 482.547 174.645 482.547 171.785H474.512C467.692 171.785 467.692 174.285 467.692 180.585C467.692 185.155 468.438 186.219 469.583 187.269C468.984 187.748 468.503 188.358 468.175 189.051C467.848 189.744 467.682 190.503 467.692 191.269C467.692 196.024 467.733 196.024 475.832 196.024C478.127 196.024 478.332 196.639 478.332 197.779C478.332 199.364 478.112 200.329 475.647 200.329L470.237 200.639C470.237 203.894 470.237 203.939 473.057 203.939H475.697C480.932 203.939 482.077 202.184 482.077 197.779C482.077 192.719 480.887 192.279 475.827 192.279M474.507 175.515C477.277 175.515 477.277 176.97 477.277 180.575C477.277 184.27 477.277 186.12 474.507 186.12C471.827 186.12 471.647 184.27 471.647 180.575C471.647 176.88 471.647 175.515 474.507 175.515ZM456.908 171.775C450.178 171.775 450.128 175.035 450.128 183.775C450.128 192.514 450.173 196.004 456.908 196.004C463.643 196.004 463.728 192.504 463.728 183.775C463.728 175.045 463.728 171.775 456.908 171.775ZM456.908 192.274C454.048 192.274 454.048 189.854 454.048 183.775C454.048 177.775 454.048 175.5 456.908 175.5C459.768 175.5 459.768 177.79 459.768 183.775C459.768 189.844 459.768 192.274 456.908 192.274ZM442.034 164.026V193.244C442.034 195.884 442.033 195.884 445.948 195.884V166.715C445.948 164.031 445.903 164.031 442.034 164.031M430.599 171.775C423.869 171.775 423.824 175.035 423.824 183.775C423.824 192.529 423.869 196.004 430.604 196.004C437.339 196.004 437.424 192.504 437.424 183.775C437.424 175.045 437.419 171.775 430.599 171.775ZM430.604 192.274C427.744 192.274 427.744 189.854 427.744 183.775C427.744 177.775 427.744 175.5 430.604 175.5C433.464 175.5 433.464 177.79 433.464 183.775C433.464 189.844 433.464 192.274 430.604 192.274ZM413.185 171.775L409.93 173.005C409.84 172.08 409.18 172.08 406.015 172.08V193.079C406.015 195.719 406.015 195.719 409.93 195.719V177.96L409.535 176.73L413.585 175.54C416.14 175.625 415.699 176.905 415.699 183.985V193.094C415.699 195.734 415.699 195.734 419.659 195.734V184.025C419.659 173.115 419.439 171.795 413.189 171.795M395.02 171.795L391.585 172.985V166.735C391.585 164.056 391.586 164.056 387.711 164.056V195.734C391.626 195.734 391.625 195.734 391.625 193.094V177.96L391.23 176.73L395.28 175.54C397.44 175.625 397.44 178.62 397.44 183.985V193.094C397.44 195.734 397.44 195.734 401.4 195.734V184.025C401.4 175.32 401.4 171.795 395.02 171.795ZM376.276 183.795C376.276 177.77 376.276 175.52 378.956 175.52L380.626 175.825C383.401 176.22 383.446 176.22 383.926 172.825L378.951 171.77C372.351 171.77 372.351 175.155 372.351 183.77C372.351 192.524 372.351 195.999 378.951 195.999C380.593 195.796 382.204 195.397 383.751 194.809V191.379C382.182 191.824 380.575 192.119 378.951 192.259C376.271 192.259 376.271 189.709 376.271 183.76M359.642 185.48L359.287 184.48L368.881 184.26L368.751 181.26C368.711 175.805 368.251 171.76 362.551 171.76C355.247 171.76 355.732 175.26 355.732 184.915C355.732 192.739 355.857 196.004 362.551 196.004C364.592 195.953 366.624 195.704 368.616 195.259V191.829C366.608 192.127 364.581 192.274 362.551 192.269C359.647 192.269 359.647 190.814 359.647 185.495M359.867 179.725C359.867 176.295 360.137 175.505 362.557 175.505C364.557 175.505 364.797 176.735 364.847 179.725L365.286 180.695H359.512L359.867 179.725ZM354.587 164.021H340.367V167.765H345.647L345.347 168.87V195.709H346.397C349.567 195.709 349.607 195.709 349.607 193.024V168.87L349.212 167.77H354.582L354.587 164.021Z" fill="#EA4335"/>
</svg>
